<mxfile host="app.diagrams.net" modified="2021-04-01T09:46:50.955Z" agent="5.0 (Macintosh; Intel Mac OS X 10_15_6) AppleWebKit/605.1.15 (KHTML, like Gecko) Version/14.0.3 Safari/605.1.15" etag="fCQuwB644uipdDQyz2Ux" version="14.5.4" type="github">
  <diagram id="IuzE0gDA9yqhO_jc-zkm" name="Page-1">
    <mxGraphModel dx="2066" dy="1185" grid="1" gridSize="10" guides="1" tooltips="1" connect="1" arrows="1" fold="1" page="1" pageScale="1" pageWidth="1169" pageHeight="1654" math="0" shadow="0">
      <root>
        <mxCell id="0" />
        <mxCell id="1" parent="0" />
        <mxCell id="aSMfG0DK6dpabvfZ-Ggq-1" value="" style="rounded=0;whiteSpace=wrap;html=1;" vertex="1" parent="1">
          <mxGeometry x="160" y="160" width="240" height="280" as="geometry" />
        </mxCell>
        <mxCell id="aSMfG0DK6dpabvfZ-Ggq-2" value="Docker Engine" style="rounded=0;whiteSpace=wrap;html=1;" vertex="1" parent="1">
          <mxGeometry x="240" y="320" width="80" height="80" as="geometry" />
        </mxCell>
        <mxCell id="aSMfG0DK6dpabvfZ-Ggq-3" value="IE Publisher" style="rounded=0;whiteSpace=wrap;html=1;" vertex="1" parent="1">
          <mxGeometry x="240" y="200" width="80" height="80" as="geometry" />
        </mxCell>
        <mxCell id="aSMfG0DK6dpabvfZ-Ggq-5" value="" style="endArrow=classic;html=1;" edge="1" parent="1">
          <mxGeometry width="50" height="50" relative="1" as="geometry">
            <mxPoint x="280" y="320" as="sourcePoint" />
            <mxPoint x="279.5" y="280" as="targetPoint" />
          </mxGeometry>
        </mxCell>
        <mxCell id="aSMfG0DK6dpabvfZ-Ggq-6" value="Industrial Edge Management" style="rounded=0;whiteSpace=wrap;html=1;" vertex="1" parent="1">
          <mxGeometry x="480" y="200" width="200" height="80" as="geometry" />
        </mxCell>
        <mxCell id="aSMfG0DK6dpabvfZ-Ggq-7" value="" style="endArrow=classic;html=1;exitX=1;exitY=0.5;exitDx=0;exitDy=0;entryX=0;entryY=0.5;entryDx=0;entryDy=0;edgeStyle=orthogonalEdgeStyle;" edge="1" parent="1" source="aSMfG0DK6dpabvfZ-Ggq-3" target="aSMfG0DK6dpabvfZ-Ggq-6">
          <mxGeometry width="50" height="50" relative="1" as="geometry">
            <mxPoint x="560" y="620" as="sourcePoint" />
            <mxPoint x="610" y="570" as="targetPoint" />
          </mxGeometry>
        </mxCell>
        <mxCell id="aSMfG0DK6dpabvfZ-Ggq-8" value="&lt;font style=&quot;font-size: 18px&quot;&gt;Lokální počítač&lt;/font&gt;" style="text;html=1;strokeColor=none;fillColor=none;align=center;verticalAlign=middle;whiteSpace=wrap;rounded=0;" vertex="1" parent="1">
          <mxGeometry x="160" y="120" width="240" height="40" as="geometry" />
        </mxCell>
        <mxCell id="aSMfG0DK6dpabvfZ-Ggq-9" value="Edge zařízení" style="rounded=0;whiteSpace=wrap;html=1;" vertex="1" parent="1">
          <mxGeometry x="520" y="320" width="120" height="80" as="geometry" />
        </mxCell>
        <mxCell id="aSMfG0DK6dpabvfZ-Ggq-10" value="" style="endArrow=classic;html=1;" edge="1" parent="1">
          <mxGeometry width="50" height="50" relative="1" as="geometry">
            <mxPoint x="579.5" y="280" as="sourcePoint" />
            <mxPoint x="579.5" y="320" as="targetPoint" />
          </mxGeometry>
        </mxCell>
      </root>
    </mxGraphModel>
  </diagram>
</mxfile>
